<?xml version="1.0" encoding="UTF-8"?>
<svg width="400" height="350" version="1.1" xmlns="http://www.w3.org/2000/svg">
	<path d="m326.8 78.07 18.9 18.9 37.21 74.62-74.62-37.21-18.24-18.24-72.95 75.6 119.2 115.1c2.91 2.811 3.092 7.413 0.4128 10.44-5.16 5.84-10.68 11.36-16.52 16.52-3.032 2.679-7.632 2.498-10.44-0.4124l-114.7-118.8-114.6 118.8c-2.811 2.912-7.413 3.095-10.44 0.415-5.836-5.156-11.36-10.68-16.51-16.51-2.68-3.033-2.497-7.636 0.415-10.45l119.1-115-78.93-81.69c-14.23 16-26.26 34-35.67 53.56l-41.13-35.79c26.08-47.93 65.55-87.36 113.4-113.5l35.77 41.13c-19.5 9.39-37.46 21.4-53.41 35.6l82.1 79.3 75.98-73.33-42.98-42.98 37.42-37.42 43.62 43.62 5.436-5.247 17.46 17.46z"/>
</svg>
